<?xml version="1.0" encoding="UTF-8" standalone="no"?>
<!DOCTYPE svg PUBLIC "-//W3C//DTD SVG 1.1//EN" "http://www.w3.org/Graphics/SVG/1.1/DTD/svg11.dtd">
<!-- Generated by graphviz version 2.29.20111007.0445 (20111007.0445)
 -->
<!-- Title: G Pages: 1 -->
<svg xmlns="http://www.w3.org/2000/svg" xmlns:xlink="http://www.w3.org/1999/xlink" width="1380pt" height="872pt">
<g id="viewport" class="graph" transform="scale(1 1) rotate(0) translate(4 868)">
<title>G</title>
<polygon fill="white" stroke="white" points="-4,5 -4,-868 1377,-868 1377,5 -4,5"/>
<g id="graph2" class="cluster"><title>cluster_CamelSpider</title>
<polyline fill="none" stroke="gray" points="154,-44 1352,-44 "/>
<path fill="none" stroke="gray" d="M1352,-44C1358,-44 1364,-50 1364,-56"/>
<polyline fill="none" stroke="gray" points="1364,-56 1364,-844 "/>
<path fill="none" stroke="gray" d="M1364,-844C1364,-850 1358,-856 1352,-856"/>
<polyline fill="none" stroke="gray" points="1352,-856 154,-856 "/>
<path fill="none" stroke="gray" d="M154,-856C148,-856 142,-850 142,-844"/>
<polyline fill="none" stroke="gray" points="142,-844 142,-56 "/>
<path fill="none" stroke="gray" d="M142,-56C142,-50 148,-44 154,-44"/>
<text text-anchor="middle" x="753" y="-841" font-family="Times,serif" font-size="11.00" fill="gray">CamelSpider</text>
</g>
<g id="graph3" class="cluster"><title>cluster_CamelSpider_Entity</title>
<polyline fill="none" stroke="gray" points="162,-646 1078,-646 "/>
<path fill="none" stroke="gray" d="M1078,-646C1084,-646 1090,-652 1090,-658"/>
<polyline fill="none" stroke="gray" points="1090,-658 1090,-815 "/>
<path fill="none" stroke="gray" d="M1090,-815C1090,-821 1084,-827 1078,-827"/>
<polyline fill="none" stroke="gray" points="1078,-827 162,-827 "/>
<path fill="none" stroke="gray" d="M162,-827C156,-827 150,-821 150,-815"/>
<polyline fill="none" stroke="gray" points="150,-815 150,-658 "/>
<path fill="none" stroke="gray" d="M150,-658C150,-652 156,-646 162,-646"/>
<text text-anchor="middle" x="620" y="-812" font-family="Times,serif" font-size="11.00" fill="gray">Entity</text>
</g>
<g id="graph4" class="cluster"><title>cluster_CamelSpider_Spider</title>
<polyline fill="none" stroke="gray" points="960,-187 1344,-187 "/>
<path fill="none" stroke="gray" d="M1344,-187C1350,-187 1356,-193 1356,-199"/>
<polyline fill="none" stroke="gray" points="1356,-199 1356,-626 "/>
<path fill="none" stroke="gray" d="M1356,-626C1356,-632 1350,-638 1344,-638"/>
<polyline fill="none" stroke="gray" points="1344,-638 960,-638 "/>
<path fill="none" stroke="gray" d="M960,-638C954,-638 948,-632 948,-626"/>
<polyline fill="none" stroke="gray" points="948,-626 948,-199 "/>
<path fill="none" stroke="gray" d="M948,-199C948,-193 954,-187 960,-187"/>
<text text-anchor="middle" x="1152" y="-623" font-family="Times,serif" font-size="11.00" fill="gray">Spider</text>
</g>
<g id="graph5" class="cluster"><title>cluster_CamelSpider_Tools</title>
<polyline fill="none" stroke="gray" points="1214,-52 1288,-52 "/>
<path fill="none" stroke="gray" d="M1288,-52C1294,-52 1300,-58 1300,-64"/>
<polyline fill="none" stroke="gray" points="1300,-64 1300,-167 "/>
<path fill="none" stroke="gray" d="M1300,-167C1300,-173 1294,-179 1288,-179"/>
<polyline fill="none" stroke="gray" points="1288,-179 1214,-179 "/>
<path fill="none" stroke="gray" d="M1214,-179C1208,-179 1202,-173 1202,-167"/>
<polyline fill="none" stroke="gray" points="1202,-167 1202,-64 "/>
<path fill="none" stroke="gray" d="M1202,-64C1202,-58 1208,-52 1214,-52"/>
<text text-anchor="middle" x="1251" y="-164" font-family="Times,serif" font-size="11.00" fill="gray">Tools</text>
</g>
<!-- _CamelSpider_Entity_AbstractSpiderEgg -->
<g id="node3" class="node"><title>_CamelSpider_Entity_AbstractSpiderEgg</title>
<a xlink:href="db_CamelSpider_Entity_AbstractSpiderEgg.html" xlink:title="AbstractSpiderEgg" target="_parent">
<polygon fill="none" stroke="black" points="857.218,-690 728.782,-690 728.782,-654 857.218,-654 857.218,-690"/>
<text text-anchor="middle" x="793" y="-668.477" font-family="Courier New" font-size="11.00">AbstractSpiderEgg</text>
</a>
</g>
<!-- _Doctrine_Common_Collections_ArrayCollection -->
<g id="node26" class="node"><title>_Doctrine_Common_Collections_ArrayCollection</title>
<ellipse fill="none" stroke="black" cx="209" cy="-18" rx="208.951" ry="18"/>
<text text-anchor="middle" x="209" y="-12.4" font-family="Times,serif" font-size="14.00" fill="gray">\\Doctrine\\Common\\Collections\\ArrayCollection</text>
</g>
<!-- _CamelSpider_Entity_AbstractSpiderEgg&#45;&gt;_Doctrine_Common_Collections_ArrayCollection -->
<g id="edge6" class="edge"><title>_CamelSpider_Entity_AbstractSpiderEgg-&gt;_Doctrine_Common_Collections_ArrayCollection</title>
<path fill="none" stroke="black" d="M728.808,-655.777C725.056,-654.034 721.421,-652.113 718,-650 635.61,-599.098 640.717,-556.083 569,-491"/>
</g>
<!-- _CamelSpider_Entity_AbstractSubscription -->
<g id="node4" class="node"><title>_CamelSpider_Entity_AbstractSubscription</title>
<a xlink:href="db_CamelSpider_Entity_AbstractSubscription.html" xlink:title="«abstract»&lt;br/&gt;AbstractSubscription" target="_parent">
<polygon fill="none" stroke="black" points="867.5,-744 718.5,-744 718.5,-708 867.5,-708 867.5,-744"/>
<text text-anchor="start" x="760" y="-727.5" font-family="Courier New" font-size="11.00">«abstract»</text>
<text text-anchor="start" x="727" y="-716.5" font-family="Courier New" font-size="11.00">AbstractSubscription</text>
</a>
</g>
<!-- _CamelSpider_Entity_InterfaceSubscription -->
<g id="node8" class="node"><title>_CamelSpider_Entity_InterfaceSubscription</title>
<a xlink:href="db_CamelSpider_Entity_InterfaceSubscription.html" xlink:title="InterfaceSubscription" target="_parent">
<polygon fill="none" stroke="black" points="645.123,-744 490.877,-744 490.877,-708 645.123,-708 645.123,-744"/>
<text text-anchor="middle" x="568" y="-722.477" font-family="Courier New" font-size="11.00">InterfaceSubscription</text>
</a>
</g>
<!-- _CamelSpider_Entity_AbstractSubscription&#45;&gt;_CamelSpider_Entity_InterfaceSubscription -->
<g id="edge26" class="edge"><title>_CamelSpider_Entity_AbstractSubscription-&gt;_CamelSpider_Entity_InterfaceSubscription</title>
<path fill="none" stroke="black" stroke-dasharray="1,5" d="M718.363,-726C698.194,-726 676.149,-726 655.337,-726"/>
<polygon fill="none" stroke="black" points="655.233,-722.5 645.233,-726 655.233,-729.5 655.233,-722.5"/>
</g>
<!-- _CamelSpider_Entity_AbstractSubscription&#45;&gt;_Doctrine_Common_Collections_ArrayCollection -->
<g id="edge8" class="edge"><title>_CamelSpider_Entity_AbstractSubscription-&gt;_Doctrine_Common_Collections_ArrayCollection</title>
<path fill="none" stroke="black" d="M732.159,-707.838C727.158,-705.242 722.356,-702.308 718,-699 627.439,-630.224 653.21,-567.42 569,-491"/>
</g>
<!-- _CamelSpider_Entity_Document -->
<g id="node5" class="node"><title>_CamelSpider_Entity_Document</title>
<a xlink:href="db_CamelSpider_Entity_Document.html" xlink:title="Document" target="_parent">
<polygon fill="none" stroke="black" points="1045.31,-690 976.691,-690 976.691,-654 1045.31,-654 1045.31,-690"/>
<text text-anchor="middle" x="1011" y="-668.477" font-family="Courier New" font-size="11.00">Document</text>
</a>
</g>
<!-- _CamelSpider_Entity_Document&#45;&gt;_CamelSpider_Entity_AbstractSpiderEgg -->
<g id="edge10" class="edge"><title>_CamelSpider_Entity_Document-&gt;_CamelSpider_Entity_AbstractSpiderEgg</title>
<path fill="none" stroke="black" d="M976.25,-672C947.292,-672 904.531,-672 867.706,-672"/>
<polygon fill="none" stroke="black" points="867.493,-668.5 857.493,-672 867.493,-675.5 867.493,-668.5"/>
</g>
<!-- _CamelSpider_Entity_FactorySubscription -->
<g id="node6" class="node"><title>_CamelSpider_Entity_FactorySubscription</title>
<a xlink:href="db_CamelSpider_Entity_FactorySubscription.html" xlink:title="FactorySubscription" target="_parent">
<polygon fill="none" stroke="black" points="1081.92,-744 940.079,-744 940.079,-708 1081.92,-708 1081.92,-744"/>
<text text-anchor="middle" x="1011" y="-722.477" font-family="Courier New" font-size="11.00">FactorySubscription</text>
</a>
</g>
<!-- _CamelSpider_Entity_InterfaceLink -->
<g id="node7" class="node"><title>_CamelSpider_Entity_InterfaceLink</title>
<a xlink:href="db_CamelSpider_Entity_InterfaceLink.html" xlink:title="InterfaceLink" target="_parent">
<polygon fill="none" stroke="black" points="259.814,-717 158.186,-717 158.186,-681 259.814,-681 259.814,-717"/>
<text text-anchor="middle" x="209" y="-695.477" font-family="Courier New" font-size="11.00">InterfaceLink</text>
</a>
</g>
<!-- _CamelSpider_Entity_InterfaceSubscription&#45;&gt;_CamelSpider_Entity_InterfaceLink -->
<g id="edge12" class="edge"><title>_CamelSpider_Entity_InterfaceSubscription-&gt;_CamelSpider_Entity_InterfaceLink</title>
<path fill="none" stroke="black" d="M490.852,-720.241C424.938,-715.256 330.901,-708.144 270.151,-703.549"/>
<polygon fill="none" stroke="black" points="270.189,-700.042 259.954,-702.778 269.661,-707.022 270.189,-700.042"/>
</g>
<!-- _CamelSpider_Entity_Link -->
<g id="node9" class="node"><title>_CamelSpider_Entity_Link</title>
<a xlink:href="db_CamelSpider_Entity_Link.html" xlink:title="Link" target="_parent">
<polygon fill="none" stroke="black" points="595,-690 541,-690 541,-654 595,-654 595,-690"/>
<text text-anchor="middle" x="568" y="-668.477" font-family="Courier New" font-size="11.00">Link</text>
</a>
</g>
<!-- _CamelSpider_Entity_Link&#45;&gt;_CamelSpider_Entity_InterfaceLink -->
<g id="edge28" class="edge"><title>_CamelSpider_Entity_Link-&gt;_CamelSpider_Entity_InterfaceLink</title>
<path fill="none" stroke="black" stroke-dasharray="1,5" d="M540.749,-673.985C484.115,-678.269 349.216,-688.471 270.302,-694.439"/>
<polygon fill="none" stroke="black" points="269.731,-690.972 260.023,-695.217 270.259,-697.953 269.731,-690.972"/>
</g>
<!-- _CamelSpider_Entity_Link&#45;&gt;_Doctrine_Common_Collections_ArrayCollection -->
<g id="edge14" class="edge"><title>_CamelSpider_Entity_Link-&gt;_Doctrine_Common_Collections_ArrayCollection</title>
<path fill="none" stroke="black" d="M540.781,-670.105C524.493,-667.683 504.055,-662.229 490,-650 293.871,-479.356 229.175,-144.958 213.914,-46.1383"/>
<polygon fill="none" stroke="black" points="217.344,-45.4105 212.402,-36.0391 210.421,-46.4471 217.344,-45.4105"/>
</g>
<!-- _CamelSpider_Entity_Subscription -->
<g id="node10" class="node"><title>_CamelSpider_Entity_Subscription</title>
<a xlink:href="db_CamelSpider_Entity_Subscription.html" xlink:title="Subscription" target="_parent">
<polygon fill="none" stroke="black" points="1058.71,-798 963.287,-798 963.287,-762 1058.71,-762 1058.71,-798"/>
<text text-anchor="middle" x="1011" y="-776.477" font-family="Courier New" font-size="11.00">Subscription</text>
</a>
</g>
<!-- _CamelSpider_Entity_Subscription&#45;&gt;_CamelSpider_Entity_AbstractSubscription -->
<g id="edge16" class="edge"><title>_CamelSpider_Entity_Subscription-&gt;_CamelSpider_Entity_AbstractSubscription</title>
<path fill="none" stroke="black" d="M963.131,-768.283C937.715,-761.929 905.563,-753.891 876.134,-746.534"/>
<polygon fill="none" stroke="black" points="876.822,-743.098 866.272,-744.068 875.125,-749.889 876.822,-743.098"/>
</g>
<!-- _CamelSpider_Spider_AbstractCache -->
<g id="node12" class="node"><title>_CamelSpider_Spider_AbstractCache</title>
<a xlink:href="db_CamelSpider_Spider_AbstractCache.html" xlink:title="AbstractCache" target="_parent">
<polygon fill="none" stroke="black" points="1301.81,-609 1200.19,-609 1200.19,-573 1301.81,-573 1301.81,-609"/>
<text text-anchor="middle" x="1251" y="-587.477" font-family="Courier New" font-size="11.00">AbstractCache</text>
</a>
</g>
<!-- _CamelSpider_Spider_AbstractCache&#45;&gt;_CamelSpider_Entity_AbstractSpiderEgg -->
<g id="edge18" class="edge"><title>_CamelSpider_Spider_AbstractCache-&gt;_CamelSpider_Entity_AbstractSpiderEgg</title>
<path fill="none" stroke="black" d="M1200.04,-599.538C1138.75,-610.051 1031.68,-628.539 940,-645 916.352,-649.246 890.57,-653.979 867.343,-658.282"/>
<polygon fill="none" stroke="black" points="866.408,-654.896 857.214,-660.161 867.685,-661.779 866.408,-654.896"/>
</g>
<!-- _CamelSpider_Spider_InterfaceCache -->
<g id="node15" class="node"><title>_CamelSpider_Spider_InterfaceCache</title>
<a xlink:href="db_CamelSpider_Spider_InterfaceCache.html" xlink:title="InterfaceCache" target="_parent">
<polygon fill="none" stroke="black" points="1065.42,-609 956.584,-609 956.584,-573 1065.42,-573 1065.42,-609"/>
<text text-anchor="middle" x="1011" y="-587.477" font-family="Courier New" font-size="11.00">InterfaceCache</text>
</a>
</g>
<!-- _CamelSpider_Spider_AbstractCache&#45;&gt;_CamelSpider_Spider_InterfaceCache -->
<g id="edge30" class="edge"><title>_CamelSpider_Spider_AbstractCache-&gt;_CamelSpider_Spider_InterfaceCache</title>
<path fill="none" stroke="black" stroke-dasharray="1,5" d="M1200.11,-591C1163.95,-591 1114.76,-591 1075.75,-591"/>
<polygon fill="none" stroke="black" points="1075.55,-587.5 1065.55,-591 1075.55,-594.5 1075.55,-587.5"/>
</g>
<!-- _CamelSpider_Spider_AbstractSpider -->
<g id="node13" class="node"><title>_CamelSpider_Spider_AbstractSpider</title>
<a xlink:href="db_CamelSpider_Spider_AbstractSpider.html" xlink:title="«abstract»&lt;br/&gt;AbstractSpider" target="_parent">
<polygon fill="none" stroke="black" points="1065.5,-555 956.5,-555 956.5,-519 1065.5,-519 1065.5,-555"/>
<text text-anchor="start" x="978" y="-538.5" font-family="Courier New" font-size="11.00">«abstract»</text>
<text text-anchor="start" x="965" y="-527.5" font-family="Courier New" font-size="11.00">AbstractSpider</text>
</a>
</g>
<!-- _CamelSpider_Spider_AbstractSpider&#45;&gt;_CamelSpider_Entity_AbstractSpiderEgg -->
<g id="edge20" class="edge"><title>_CamelSpider_Spider_AbstractSpider-&gt;_CamelSpider_Entity_AbstractSpiderEgg</title>
<path fill="none" stroke="black" d="M956.168,-554.482C950.489,-557.274 944.979,-560.438 940,-564 899.456,-593.003 909.659,-622.624 868,-650 867.475,-650.345 866.944,-650.685 866.408,-651.019"/>
<polygon fill="none" stroke="black" points="864.417,-648.12 857.333,-655.998 867.784,-654.257 864.417,-648.12"/>
</g>
<!-- _CamelSpider_Spider_DocumentManager -->
<g id="node14" class="node"><title>_CamelSpider_Spider_DocumentManager</title>
<a xlink:href="db_CamelSpider_Spider_DocumentManager.html" xlink:title="DocumentManager" target="_parent">
<polygon fill="none" stroke="black" points="1308.52,-555 1193.48,-555 1193.48,-519 1308.52,-519 1308.52,-555"/>
<text text-anchor="middle" x="1251" y="-533.477" font-family="Courier New" font-size="11.00">DocumentManager</text>
</a>
</g>
<!-- _CamelSpider_Spider_SpiderAsserts -->
<g id="node16" class="node"><title>_CamelSpider_Spider_SpiderAsserts</title>
<a xlink:href="db_CamelSpider_Spider_SpiderAsserts.html" xlink:title="SpiderAsserts" target="_parent">
<polygon fill="none" stroke="black" points="1301.81,-501 1200.19,-501 1200.19,-465 1301.81,-465 1301.81,-501"/>
<text text-anchor="middle" x="1251" y="-479.477" font-family="Courier New" font-size="11.00">SpiderAsserts</text>
</a>
</g>
<!-- _CamelSpider_Spider_SpiderDom -->
<g id="node17" class="node"><title>_CamelSpider_Spider_SpiderDom</title>
<a xlink:href="db_CamelSpider_Spider_SpiderDom.html" xlink:title="SpiderDom" target="_parent">
<polygon fill="none" stroke="black" points="1288.91,-447 1213.09,-447 1213.09,-411 1288.91,-411 1288.91,-447"/>
<text text-anchor="middle" x="1251" y="-425.477" font-family="Courier New" font-size="11.00">SpiderDom</text>
</a>
</g>
<!-- _CamelSpider_Spider_SpiderElements -->
<g id="node18" class="node"><title>_CamelSpider_Spider_SpiderElements</title>
<a xlink:href="db_CamelSpider_Spider_SpiderElements.html" xlink:title="SpiderElements" target="_parent">
<polygon fill="none" stroke="black" points="1305.42,-339 1196.58,-339 1196.58,-303 1305.42,-303 1305.42,-339"/>
<text text-anchor="middle" x="1251" y="-317.477" font-family="Courier New" font-size="11.00">SpiderElements</text>
</a>
</g>
<!-- _CamelSpider_Spider_SpiderElements&#45;&gt;_Doctrine_Common_Collections_ArrayCollection -->
<g id="edge22" class="edge"><title>_CamelSpider_Spider_SpiderElements-&gt;_Doctrine_Common_Collections_ArrayCollection</title>
<path fill="none" stroke="black" d="M567,-491C407.724,-346.457 270.508,-122.552 225.542,-45.2986"/>
<polygon fill="none" stroke="black" points="228.321,-43.1125 220.284,-36.2087 222.262,-46.6174 228.321,-43.1125"/>
<path fill="none" stroke="black" d="M1196.78,-335.529C1038.51,-378.583 580.935,-501.831 569,-491"/>
</g>
<!-- _CamelSpider_Spider_SpiderProcessor -->
<g id="node19" class="node"><title>_CamelSpider_Spider_SpiderProcessor</title>
<a xlink:href="db_CamelSpider_Spider_SpiderProcessor.html" xlink:title="SpiderProcessor" target="_parent">
<polygon fill="none" stroke="black" points="1308.52,-393 1193.48,-393 1193.48,-357 1308.52,-357 1308.52,-393"/>
<text text-anchor="middle" x="1251" y="-371.477" font-family="Courier New" font-size="11.00">SpiderProcessor</text>
</a>
</g>
<!-- _CamelSpider_Spider_SpiderProcessor&#45;&gt;_CamelSpider_Spider_AbstractSpider -->
<g id="edge24" class="edge"><title>_CamelSpider_Spider_SpiderProcessor-&gt;_CamelSpider_Spider_AbstractSpider</title>
<path fill="none" stroke="black" d="M1193.48,-383.108C1179.55,-387.108 1165.38,-393.081 1154,-402 1108.57,-437.607 1135.41,-479.376 1090,-515 1085.57,-518.474 1080.62,-521.399 1075.42,-523.862"/>
<polygon fill="none" stroke="black" points="1073.76,-520.762 1065.86,-527.816 1076.44,-527.232 1073.76,-520.762"/>
</g>
<!-- _CamelSpider_Spider_SpiderSubscriptionInterface -->
<g id="node20" class="node"><title>_CamelSpider_Spider_SpiderSubscriptionInterface</title>
<a xlink:href="db_CamelSpider_Spider_SpiderSubscriptionInterface.html" xlink:title="SpiderSubscriptionInterface" target="_parent">
<polygon fill="none" stroke="black" points="1348.23,-285 1153.77,-285 1153.77,-249 1348.23,-249 1348.23,-285"/>
<text text-anchor="middle" x="1251" y="-263.477" font-family="Courier New" font-size="11.00">SpiderSubscriptionInterface</text>
</a>
</g>
<!-- _CamelSpider_Spider_SpiderTxt -->
<g id="node21" class="node"><title>_CamelSpider_Spider_SpiderTxt</title>
<a xlink:href="db_CamelSpider_Spider_SpiderTxt.html" xlink:title="SpiderTxt" target="_parent">
<polygon fill="none" stroke="black" points="1288.91,-231 1213.09,-231 1213.09,-195 1288.91,-195 1288.91,-231"/>
<text text-anchor="middle" x="1251" y="-209.477" font-family="Courier New" font-size="11.00">SpiderTxt</text>
</a>
</g>
<!-- _CamelSpider_Tools_IdeiasLang -->
<g id="node23" class="node"><title>_CamelSpider_Tools_IdeiasLang</title>
<a xlink:href="db_CamelSpider_Tools_IdeiasLang.html" xlink:title="IdeiasLang" target="_parent">
<polygon fill="none" stroke="black" points="1292.01,-150 1209.99,-150 1209.99,-114 1292.01,-114 1292.01,-150"/>
<text text-anchor="middle" x="1251" y="-128.477" font-family="Courier New" font-size="11.00">IdeiasLang</text>
</a>
</g>
<!-- _CamelSpider_Tools_Urlizer -->
<g id="node24" class="node"><title>_CamelSpider_Tools_Urlizer</title>
<a xlink:href="db_CamelSpider_Tools_Urlizer.html" xlink:title="Urlizer" target="_parent">
<polygon fill="none" stroke="black" points="1282.21,-96 1219.79,-96 1219.79,-60 1282.21,-60 1282.21,-96"/>
<text text-anchor="middle" x="1251" y="-74.4766" font-family="Courier New" font-size="11.00">Urlizer</text>
</a>
</g>
</g>
<script xlink:href="js/SVGPan.js"/></svg>
