<?xml version="1.0" encoding="UTF-8" standalone="no"?>
<!DOCTYPE svg PUBLIC "-//W3C//DTD SVG 1.1//EN" "http://www.w3.org/Graphics/SVG/1.1/DTD/svg11.dtd">
<!-- Generated by graphviz version 2.29.20111007.0445 (20111007.0445)
 -->
<!-- Title: G Pages: 1 -->
<svg xmlns="http://www.w3.org/2000/svg" xmlns:xlink="http://www.w3.org/1999/xlink" width="1166pt" height="710pt">
<g id="viewport" class="graph" transform="scale(1 1) rotate(0) translate(4 706)">
<title>G</title>
<polygon fill="white" stroke="white" points="-4,5 -4,-706 1163,-706 1163,5 -4,5"/>
<g id="graph2" class="cluster"><title>cluster_CamelSpider</title>
<polyline fill="none" stroke="gray" points="154,-44 1138,-44 "/>
<path fill="none" stroke="gray" d="M1138,-44C1144,-44 1150,-50 1150,-56"/>
<polyline fill="none" stroke="gray" points="1150,-56 1150,-682 "/>
<path fill="none" stroke="gray" d="M1150,-682C1150,-688 1144,-694 1138,-694"/>
<polyline fill="none" stroke="gray" points="1138,-694 154,-694 "/>
<path fill="none" stroke="gray" d="M154,-694C148,-694 142,-688 142,-682"/>
<polyline fill="none" stroke="gray" points="142,-682 142,-56 "/>
<path fill="none" stroke="gray" d="M142,-56C142,-50 148,-44 154,-44"/>
<text text-anchor="middle" x="646" y="-679" font-family="Times,serif" font-size="11.00" fill="gray">CamelSpider</text>
</g>
<g id="graph3" class="cluster"><title>cluster_CamelSpider_Entity</title>
<polyline fill="none" stroke="gray" points="162,-484 1104,-484 "/>
<path fill="none" stroke="gray" d="M1104,-484C1110,-484 1116,-490 1116,-496"/>
<polyline fill="none" stroke="gray" points="1116,-496 1116,-653 "/>
<path fill="none" stroke="gray" d="M1116,-653C1116,-659 1110,-665 1104,-665"/>
<polyline fill="none" stroke="gray" points="1104,-665 162,-665 "/>
<path fill="none" stroke="gray" d="M162,-665C156,-665 150,-659 150,-653"/>
<polyline fill="none" stroke="gray" points="150,-653 150,-496 "/>
<path fill="none" stroke="gray" d="M150,-496C150,-490 156,-484 162,-484"/>
<text text-anchor="middle" x="633" y="-650" font-family="Times,serif" font-size="11.00" fill="gray">Entity</text>
</g>
<g id="graph4" class="cluster"><title>cluster_CamelSpider_Spider</title>
<polyline fill="none" stroke="gray" points="743,-133 1130,-133 "/>
<path fill="none" stroke="gray" d="M1130,-133C1136,-133 1142,-139 1142,-145"/>
<polyline fill="none" stroke="gray" points="1142,-145 1142,-464 "/>
<path fill="none" stroke="gray" d="M1142,-464C1142,-470 1136,-476 1130,-476"/>
<polyline fill="none" stroke="gray" points="1130,-476 743,-476 "/>
<path fill="none" stroke="gray" d="M743,-476C737,-476 731,-470 731,-464"/>
<polyline fill="none" stroke="gray" points="731,-464 731,-145 "/>
<path fill="none" stroke="gray" d="M731,-145C731,-139 737,-133 743,-133"/>
<text text-anchor="middle" x="936.5" y="-461" font-family="Times,serif" font-size="11.00" fill="gray">Spider</text>
</g>
<g id="graph5" class="cluster"><title>cluster_CamelSpider_Tools</title>
<polyline fill="none" stroke="gray" points="1010,-52 1064,-52 "/>
<path fill="none" stroke="gray" d="M1064,-52C1070,-52 1076,-58 1076,-64"/>
<polyline fill="none" stroke="gray" points="1076,-64 1076,-113 "/>
<path fill="none" stroke="gray" d="M1076,-113C1076,-119 1070,-125 1064,-125"/>
<polyline fill="none" stroke="gray" points="1064,-125 1010,-125 "/>
<path fill="none" stroke="gray" d="M1010,-125C1004,-125 998,-119 998,-113"/>
<polyline fill="none" stroke="gray" points="998,-113 998,-64 "/>
<path fill="none" stroke="gray" d="M998,-64C998,-58 1004,-52 1010,-52"/>
<text text-anchor="middle" x="1037" y="-110" font-family="Times,serif" font-size="11.00" fill="gray">Tools</text>
</g>
<!-- _CamelSpider_Entity_AbstractSubscription -->
<g id="node3" class="node"><title>_CamelSpider_Entity_AbstractSubscription</title>
<a xlink:href="db_CamelSpider_Entity_AbstractSubscription.html" xlink:title="«abstract»&lt;br/&gt;AbstractSubscription" target="_parent">
<polygon fill="none" stroke="black" points="867.5,-555 718.5,-555 718.5,-519 867.5,-519 867.5,-555"/>
<text text-anchor="start" x="760" y="-538.5" font-family="Courier New" font-size="11.00">«abstract»</text>
<text text-anchor="start" x="727" y="-527.5" font-family="Courier New" font-size="11.00">AbstractSubscription</text>
</a>
</g>
<!-- _CamelSpider_Entity_InterfaceSubscription -->
<g id="node7" class="node"><title>_CamelSpider_Entity_InterfaceSubscription</title>
<a xlink:href="db_CamelSpider_Entity_InterfaceSubscription.html" xlink:title="InterfaceSubscription" target="_parent">
<polygon fill="none" stroke="black" points="645.123,-582 490.877,-582 490.877,-546 645.123,-546 645.123,-582"/>
<text text-anchor="middle" x="568" y="-560.477" font-family="Courier New" font-size="11.00">InterfaceSubscription</text>
</a>
</g>
<!-- _CamelSpider_Entity_AbstractSubscription&#45;&gt;_CamelSpider_Entity_InterfaceSubscription -->
<g id="edge18" class="edge"><title>_CamelSpider_Entity_AbstractSubscription-&gt;_CamelSpider_Entity_InterfaceSubscription</title>
<path fill="none" stroke="black" stroke-dasharray="1,5" d="M718.363,-545.916C698.194,-548.358 676.149,-551.027 655.337,-553.547"/>
<polygon fill="none" stroke="black" points="654.74,-550.093 645.233,-554.77 655.582,-557.042 654.74,-550.093"/>
</g>
<!-- _Doctrine_Common_Collections_ArrayCollection -->
<g id="node21" class="node"><title>_Doctrine_Common_Collections_ArrayCollection</title>
<ellipse fill="none" stroke="black" cx="209" cy="-18" rx="208.951" ry="18"/>
<text text-anchor="middle" x="209" y="-12.4" font-family="Times,serif" font-size="14.00" fill="gray">\\Doctrine\\Common\\Collections\\ArrayCollection</text>
</g>
<!-- _CamelSpider_Entity_AbstractSubscription&#45;&gt;_Doctrine_Common_Collections_ArrayCollection -->
<g id="edge6" class="edge"><title>_CamelSpider_Entity_AbstractSubscription-&gt;_Doctrine_Common_Collections_ArrayCollection</title>
<path fill="none" stroke="black" d="M767.384,-518.971C726.773,-489.463 642.867,-429.487 569,-383"/>
</g>
<!-- _CamelSpider_Entity_Document -->
<g id="node4" class="node"><title>_CamelSpider_Entity_Document</title>
<a xlink:href="db_CamelSpider_Entity_Document.html" xlink:title="Document" target="_parent">
<polygon fill="none" stroke="black" points="1071.31,-528 1002.69,-528 1002.69,-492 1071.31,-492 1071.31,-528"/>
<text text-anchor="middle" x="1037" y="-506.477" font-family="Courier New" font-size="11.00">Document</text>
</a>
</g>
<!-- _CamelSpider_Entity_Document&#45;&gt;_Doctrine_Common_Collections_ArrayCollection -->
<g id="edge8" class="edge"><title>_CamelSpider_Entity_Document-&gt;_Doctrine_Common_Collections_ArrayCollection</title>
<path fill="none" stroke="black" d="M1002.62,-504.068C983.263,-499.567 959.035,-492.044 940,-480 900.132,-454.775 908.505,-426.189 868,-402 838.847,-384.59 827.954,-383.383 794,-383"/>
</g>
<!-- _CamelSpider_Entity_FactorySubscription -->
<g id="node5" class="node"><title>_CamelSpider_Entity_FactorySubscription</title>
<a xlink:href="db_CamelSpider_Entity_FactorySubscription.html" xlink:title="FactorySubscription" target="_parent">
<polygon fill="none" stroke="black" points="1107.92,-582 966.079,-582 966.079,-546 1107.92,-546 1107.92,-582"/>
<text text-anchor="middle" x="1037" y="-560.477" font-family="Courier New" font-size="11.00">FactorySubscription</text>
</a>
</g>
<!-- _CamelSpider_Entity_InterfaceLink -->
<g id="node6" class="node"><title>_CamelSpider_Entity_InterfaceLink</title>
<a xlink:href="db_CamelSpider_Entity_InterfaceLink.html" xlink:title="InterfaceLink" target="_parent">
<polygon fill="none" stroke="black" points="259.814,-555 158.186,-555 158.186,-519 259.814,-519 259.814,-555"/>
<text text-anchor="middle" x="209" y="-533.477" font-family="Courier New" font-size="11.00">InterfaceLink</text>
</a>
</g>
<!-- _CamelSpider_Entity_InterfaceSubscription&#45;&gt;_CamelSpider_Entity_InterfaceLink -->
<g id="edge10" class="edge"><title>_CamelSpider_Entity_InterfaceSubscription-&gt;_CamelSpider_Entity_InterfaceLink</title>
<path fill="none" stroke="black" d="M490.852,-558.241C424.938,-553.256 330.901,-546.144 270.151,-541.549"/>
<polygon fill="none" stroke="black" points="270.189,-538.042 259.954,-540.778 269.661,-545.022 270.189,-538.042"/>
</g>
<!-- _CamelSpider_Entity_Link -->
<g id="node8" class="node"><title>_CamelSpider_Entity_Link</title>
<a xlink:href="db_CamelSpider_Entity_Link.html" xlink:title="Link" target="_parent">
<polygon fill="none" stroke="black" points="595,-528 541,-528 541,-492 595,-492 595,-528"/>
<text text-anchor="middle" x="568" y="-506.477" font-family="Courier New" font-size="11.00">Link</text>
</a>
</g>
<!-- _CamelSpider_Entity_Link&#45;&gt;_CamelSpider_Entity_InterfaceLink -->
<g id="edge20" class="edge"><title>_CamelSpider_Entity_Link-&gt;_CamelSpider_Entity_InterfaceLink</title>
<path fill="none" stroke="black" stroke-dasharray="1,5" d="M540.749,-511.985C484.115,-516.269 349.216,-526.471 270.302,-532.439"/>
<polygon fill="none" stroke="black" points="269.731,-528.972 260.023,-533.217 270.259,-535.953 269.731,-528.972"/>
</g>
<!-- _CamelSpider_Entity_Link&#45;&gt;_Doctrine_Common_Collections_ArrayCollection -->
<g id="edge12" class="edge"><title>_CamelSpider_Entity_Link-&gt;_Doctrine_Common_Collections_ArrayCollection</title>
<path fill="none" stroke="black" d="M540.903,-507.454C524.865,-504.775 504.654,-499.277 490,-488 331.879,-366.316 244.722,-127.86 218.536,-46.2093"/>
<polygon fill="none" stroke="black" points="221.721,-44.6702 215.377,-36.1846 215.044,-46.7742 221.721,-44.6702"/>
</g>
<!-- _CamelSpider_Entity_Subscription -->
<g id="node9" class="node"><title>_CamelSpider_Entity_Subscription</title>
<a xlink:href="db_CamelSpider_Entity_Subscription.html" xlink:title="Subscription" target="_parent">
<polygon fill="none" stroke="black" points="1084.71,-636 989.287,-636 989.287,-600 1084.71,-600 1084.71,-636"/>
<text text-anchor="middle" x="1037" y="-614.477" font-family="Courier New" font-size="11.00">Subscription</text>
</a>
</g>
<!-- _CamelSpider_Entity_Subscription&#45;&gt;_CamelSpider_Entity_AbstractSubscription -->
<g id="edge14" class="edge"><title>_CamelSpider_Entity_Subscription-&gt;_CamelSpider_Entity_AbstractSubscription</title>
<path fill="none" stroke="black" d="M989.387,-605.698C973.623,-601.324 955.972,-596.19 940,-591 909.898,-581.218 876.782,-569.084 849.709,-558.798"/>
<polygon fill="none" stroke="black" points="850.616,-555.397 840.025,-555.099 848.118,-561.937 850.616,-555.397"/>
</g>
<!-- _CamelSpider_Spider_AbstractCache -->
<g id="node11" class="node"><title>_CamelSpider_Spider_AbstractCache</title>
<a xlink:href="db_CamelSpider_Spider_AbstractCache.html" xlink:title="AbstractCache" target="_parent">
<polygon fill="none" stroke="black" points="1087.81,-447 986.186,-447 986.186,-411 1087.81,-411 1087.81,-447"/>
<text text-anchor="middle" x="1037" y="-425.477" font-family="Courier New" font-size="11.00">AbstractCache</text>
</a>
</g>
<!-- _CamelSpider_Spider_InterfaceCache -->
<g id="node12" class="node"><title>_CamelSpider_Spider_InterfaceCache</title>
<a xlink:href="db_CamelSpider_Spider_InterfaceCache.html" xlink:title="InterfaceCache" target="_parent">
<polygon fill="none" stroke="black" points="847.416,-447 738.584,-447 738.584,-411 847.416,-411 847.416,-447"/>
<text text-anchor="middle" x="793" y="-425.477" font-family="Courier New" font-size="11.00">InterfaceCache</text>
</a>
</g>
<!-- _CamelSpider_Spider_AbstractCache&#45;&gt;_CamelSpider_Spider_InterfaceCache -->
<g id="edge22" class="edge"><title>_CamelSpider_Spider_AbstractCache-&gt;_CamelSpider_Spider_InterfaceCache</title>
<path fill="none" stroke="black" stroke-dasharray="1,5" d="M986.151,-429C948.984,-429 897.926,-429 857.783,-429"/>
<polygon fill="none" stroke="black" points="857.565,-425.5 847.565,-429 857.565,-432.5 857.565,-425.5"/>
</g>
<!-- _CamelSpider_Spider_SpiderAsserts -->
<g id="node13" class="node"><title>_CamelSpider_Spider_SpiderAsserts</title>
<a xlink:href="db_CamelSpider_Spider_SpiderAsserts.html" xlink:title="SpiderAsserts" target="_parent">
<polygon fill="none" stroke="black" points="1087.81,-393 986.186,-393 986.186,-357 1087.81,-357 1087.81,-393"/>
<text text-anchor="middle" x="1037" y="-371.477" font-family="Courier New" font-size="11.00">SpiderAsserts</text>
</a>
</g>
<!-- _CamelSpider_Spider_SpiderDom -->
<g id="node14" class="node"><title>_CamelSpider_Spider_SpiderDom</title>
<a xlink:href="db_CamelSpider_Spider_SpiderDom.html" xlink:title="SpiderDom" target="_parent">
<polygon fill="none" stroke="black" points="1074.91,-339 999.089,-339 999.089,-303 1074.91,-303 1074.91,-339"/>
<text text-anchor="middle" x="1037" y="-317.477" font-family="Courier New" font-size="11.00">SpiderDom</text>
</a>
</g>
<!-- _CamelSpider_Spider_SpiderElements -->
<g id="node15" class="node"><title>_CamelSpider_Spider_SpiderElements</title>
<a xlink:href="db_CamelSpider_Spider_SpiderElements.html" xlink:title="SpiderElements" target="_parent">
<polygon fill="none" stroke="black" points="1091.42,-285 982.584,-285 982.584,-249 1091.42,-249 1091.42,-285"/>
<text text-anchor="middle" x="1037" y="-263.477" font-family="Courier New" font-size="11.00">SpiderElements</text>
</a>
</g>
<!-- _CamelSpider_Spider_SpiderElements&#45;&gt;_Doctrine_Common_Collections_ArrayCollection -->
<g id="edge16" class="edge"><title>_CamelSpider_Spider_SpiderElements-&gt;_Doctrine_Common_Collections_ArrayCollection</title>
<path fill="none" stroke="black" d="M567,-383C413.356,-286.307 277.058,-110.716 228.688,-44.3526"/>
<polygon fill="none" stroke="black" points="231.408,-42.1417 222.711,-36.0915 225.737,-46.245 231.408,-42.1417"/>
<path fill="none" stroke="black" d="M792,-383C692.895,-381.883 652.882,-435.79 569,-383"/>
<path fill="none" stroke="black" d="M982.782,-279.18C968.608,-283.172 953.492,-288.123 940,-294 870.328,-324.348 869.99,-383.856 794,-383"/>
</g>
<!-- _CamelSpider_Spider_SpiderProcessor -->
<g id="node16" class="node"><title>_CamelSpider_Spider_SpiderProcessor</title>
<a xlink:href="db_CamelSpider_Spider_SpiderProcessor.html" xlink:title="SpiderProcessor" target="_parent">
<polygon fill="none" stroke="black" points="1094.52,-231 979.484,-231 979.484,-195 1094.52,-195 1094.52,-231"/>
<text text-anchor="middle" x="1037" y="-209.477" font-family="Courier New" font-size="11.00">SpiderProcessor</text>
</a>
</g>
<!-- _CamelSpider_Spider_SpiderSubscriptionInterface -->
<g id="node17" class="node"><title>_CamelSpider_Spider_SpiderSubscriptionInterface</title>
<a xlink:href="db_CamelSpider_Spider_SpiderSubscriptionInterface.html" xlink:title="SpiderSubscriptionInterface" target="_parent">
<polygon fill="none" stroke="black" points="1134.23,-177 939.771,-177 939.771,-141 1134.23,-141 1134.23,-177"/>
<text text-anchor="middle" x="1037" y="-155.477" font-family="Courier New" font-size="11.00">SpiderSubscriptionInterface</text>
</a>
</g>
<!-- _CamelSpider_Tools_Urlizer -->
<g id="node19" class="node"><title>_CamelSpider_Tools_Urlizer</title>
<a xlink:href="db_CamelSpider_Tools_Urlizer.html" xlink:title="Urlizer" target="_parent">
<polygon fill="none" stroke="black" points="1068.21,-96 1005.79,-96 1005.79,-60 1068.21,-60 1068.21,-96"/>
<text text-anchor="middle" x="1037" y="-74.4766" font-family="Courier New" font-size="11.00">Urlizer</text>
</a>
</g>
</g>
<script xlink:href="js/SVGPan.js"/></svg>
