<?xml version="1.0" encoding="UTF-8" standalone="no"?>
<!DOCTYPE svg PUBLIC "-//W3C//DTD SVG 1.1//EN" "http://www.w3.org/Graphics/SVG/1.1/DTD/svg11.dtd">
<!-- Generated by graphviz version 2.29.20111007.0445 (20111007.0445)
 -->
<!-- Title: G Pages: 1 -->
<svg xmlns="http://www.w3.org/2000/svg" xmlns:xlink="http://www.w3.org/1999/xlink" width="1308pt" height="926pt">
<g id="viewport" class="graph" transform="scale(1 1) rotate(0) translate(4 922)">
<title>G</title>
<polygon fill="white" stroke="white" points="-4,5 -4,-922 1305,-922 1305,5 -4,5"/>
<g id="graph2" class="cluster"><title>cluster_CamelSpider</title>
<polyline fill="none" stroke="gray" points="154,-44 1280,-44 "/>
<path fill="none" stroke="gray" d="M1280,-44C1286,-44 1292,-50 1292,-56"/>
<polyline fill="none" stroke="gray" points="1292,-56 1292,-898 "/>
<path fill="none" stroke="gray" d="M1292,-898C1292,-904 1286,-910 1280,-910"/>
<polyline fill="none" stroke="gray" points="1280,-910 154,-910 "/>
<path fill="none" stroke="gray" d="M154,-910C148,-910 142,-904 142,-898"/>
<polyline fill="none" stroke="gray" points="142,-898 142,-56 "/>
<path fill="none" stroke="gray" d="M142,-56C142,-50 148,-44 154,-44"/>
<text text-anchor="middle" x="717" y="-895" font-family="Times,serif" font-size="11.00" fill="gray">CamelSpider</text>
</g>
<g id="graph3" class="cluster"><title>cluster_CamelSpider_Entity</title>
<polyline fill="none" stroke="gray" points="162,-646 1078,-646 "/>
<path fill="none" stroke="gray" d="M1078,-646C1084,-646 1090,-652 1090,-658"/>
<polyline fill="none" stroke="gray" points="1090,-658 1090,-869 "/>
<path fill="none" stroke="gray" d="M1090,-869C1090,-875 1084,-881 1078,-881"/>
<polyline fill="none" stroke="gray" points="1078,-881 162,-881 "/>
<path fill="none" stroke="gray" d="M162,-881C156,-881 150,-875 150,-869"/>
<polyline fill="none" stroke="gray" points="150,-869 150,-658 "/>
<path fill="none" stroke="gray" d="M150,-658C150,-652 156,-646 162,-646"/>
<text text-anchor="middle" x="620" y="-866" font-family="Times,serif" font-size="11.00" fill="gray">Entity</text>
</g>
<g id="graph4" class="cluster"><title>cluster_CamelSpider_Spider</title>
<polyline fill="none" stroke="gray" points="944,-187 1272,-187 "/>
<path fill="none" stroke="gray" d="M1272,-187C1278,-187 1284,-193 1284,-199"/>
<polyline fill="none" stroke="gray" points="1284,-199 1284,-626 "/>
<path fill="none" stroke="gray" d="M1284,-626C1284,-632 1278,-638 1272,-638"/>
<polyline fill="none" stroke="gray" points="1272,-638 944,-638 "/>
<path fill="none" stroke="gray" d="M944,-638C938,-638 932,-632 932,-626"/>
<polyline fill="none" stroke="gray" points="932,-626 932,-199 "/>
<path fill="none" stroke="gray" d="M932,-199C932,-193 938,-187 944,-187"/>
<text text-anchor="middle" x="1108" y="-623" font-family="Times,serif" font-size="11.00" fill="gray">Spider</text>
</g>
<g id="graph5" class="cluster"><title>cluster_CamelSpider_Tools</title>
<polyline fill="none" stroke="gray" points="1178,-52 1252,-52 "/>
<path fill="none" stroke="gray" d="M1252,-52C1258,-52 1264,-58 1264,-64"/>
<polyline fill="none" stroke="gray" points="1264,-64 1264,-167 "/>
<path fill="none" stroke="gray" d="M1264,-167C1264,-173 1258,-179 1252,-179"/>
<polyline fill="none" stroke="gray" points="1252,-179 1178,-179 "/>
<path fill="none" stroke="gray" d="M1178,-179C1172,-179 1166,-173 1166,-167"/>
<polyline fill="none" stroke="gray" points="1166,-167 1166,-64 "/>
<path fill="none" stroke="gray" d="M1166,-64C1166,-58 1172,-52 1178,-52"/>
<text text-anchor="middle" x="1215" y="-164" font-family="Times,serif" font-size="11.00" fill="gray">Tools</text>
</g>
<!-- _CamelSpider_Entity_AbstractSpiderEgg -->
<g id="node3" class="node"><title>_CamelSpider_Entity_AbstractSpiderEgg</title>
<a xlink:href="db_CamelSpider_Entity_AbstractSpiderEgg.html" xlink:title="AbstractSpiderEgg" target="_parent">
<polygon fill="none" stroke="black" points="857.218,-690 728.782,-690 728.782,-654 857.218,-654 857.218,-690"/>
<text text-anchor="middle" x="793" y="-668.477" font-family="Courier New" font-size="11.00">AbstractSpiderEgg</text>
</a>
</g>
<!-- _Doctrine_Common_Collections_ArrayCollection -->
<g id="node28" class="node"><title>_Doctrine_Common_Collections_ArrayCollection</title>
<ellipse fill="none" stroke="black" cx="209" cy="-18" rx="208.951" ry="18"/>
<text text-anchor="middle" x="209" y="-12.4" font-family="Times,serif" font-size="14.00" fill="gray">\\Doctrine\\Common\\Collections\\ArrayCollection</text>
</g>
<!-- _CamelSpider_Entity_AbstractSpiderEgg&#45;&gt;_Doctrine_Common_Collections_ArrayCollection -->
<g id="edge6" class="edge"><title>_CamelSpider_Entity_AbstractSpiderEgg-&gt;_Doctrine_Common_Collections_ArrayCollection</title>
<path fill="none" stroke="black" d="M567,-626C360.767,-460.731 248.468,-141.764 218.351,-45.9074"/>
<polygon fill="none" stroke="black" points="221.612,-44.6046 215.31,-36.0876 214.925,-46.6755 221.612,-44.6046"/>
<path fill="none" stroke="black" d="M728.749,-660.411C665.064,-648.521 575.324,-631.068 569,-626"/>
</g>
<!-- _CamelSpider_Entity_AbstractSubscription -->
<g id="node4" class="node"><title>_CamelSpider_Entity_AbstractSubscription</title>
<a xlink:href="db_CamelSpider_Entity_AbstractSubscription.html" xlink:title="«abstract»&lt;br/&gt;AbstractSubscription" target="_parent">
<polygon fill="none" stroke="black" points="867.5,-744 718.5,-744 718.5,-708 867.5,-708 867.5,-744"/>
<text text-anchor="start" x="760" y="-727.5" font-family="Courier New" font-size="11.00">«abstract»</text>
<text text-anchor="start" x="727" y="-716.5" font-family="Courier New" font-size="11.00">AbstractSubscription</text>
</a>
</g>
<!-- _CamelSpider_Entity_InterfaceSubscription -->
<g id="node8" class="node"><title>_CamelSpider_Entity_InterfaceSubscription</title>
<a xlink:href="db_CamelSpider_Entity_InterfaceSubscription.html" xlink:title="InterfaceSubscription" target="_parent">
<polygon fill="none" stroke="black" points="645.123,-744 490.877,-744 490.877,-708 645.123,-708 645.123,-744"/>
<text text-anchor="middle" x="568" y="-722.477" font-family="Courier New" font-size="11.00">InterfaceSubscription</text>
</a>
</g>
<!-- _CamelSpider_Entity_AbstractSubscription&#45;&gt;_CamelSpider_Entity_InterfaceSubscription -->
<g id="edge30" class="edge"><title>_CamelSpider_Entity_AbstractSubscription-&gt;_CamelSpider_Entity_InterfaceSubscription</title>
<path fill="none" stroke="black" stroke-dasharray="1,5" d="M718.363,-726C698.194,-726 676.149,-726 655.337,-726"/>
<polygon fill="none" stroke="black" points="655.233,-722.5 645.233,-726 655.233,-729.5 655.233,-722.5"/>
</g>
<!-- _CamelSpider_Entity_AbstractSubscription&#45;&gt;_Doctrine_Common_Collections_ArrayCollection -->
<g id="edge8" class="edge"><title>_CamelSpider_Entity_AbstractSubscription-&gt;_Doctrine_Common_Collections_ArrayCollection</title>
<path fill="none" stroke="black" d="M736.651,-707.852C730.239,-705.153 723.891,-702.193 718,-699 682.833,-679.94 682.144,-662.136 646,-645 614.15,-629.9 596.506,-648.043 569,-626"/>
</g>
<!-- _CamelSpider_Entity_Document -->
<g id="node5" class="node"><title>_CamelSpider_Entity_Document</title>
<a xlink:href="db_CamelSpider_Entity_Document.html" xlink:title="Document" target="_parent">
<polygon fill="none" stroke="black" points="1045.31,-690 976.691,-690 976.691,-654 1045.31,-654 1045.31,-690"/>
<text text-anchor="middle" x="1011" y="-668.477" font-family="Courier New" font-size="11.00">Document</text>
</a>
</g>
<!-- _CamelSpider_Entity_Document&#45;&gt;_CamelSpider_Entity_AbstractSpiderEgg -->
<g id="edge10" class="edge"><title>_CamelSpider_Entity_Document-&gt;_CamelSpider_Entity_AbstractSpiderEgg</title>
<path fill="none" stroke="black" d="M976.25,-672C947.292,-672 904.531,-672 867.706,-672"/>
<polygon fill="none" stroke="black" points="867.493,-668.5 857.493,-672 867.493,-675.5 867.493,-668.5"/>
</g>
<!-- _CamelSpider_Entity_FactorySubscription -->
<g id="node6" class="node"><title>_CamelSpider_Entity_FactorySubscription</title>
<a xlink:href="db_CamelSpider_Entity_FactorySubscription.html" xlink:title="FactorySubscription" target="_parent">
<polygon fill="none" stroke="black" points="1081.92,-798 940.079,-798 940.079,-762 1081.92,-762 1081.92,-798"/>
<text text-anchor="middle" x="1011" y="-776.477" font-family="Courier New" font-size="11.00">FactorySubscription</text>
</a>
</g>
<!-- _CamelSpider_Entity_InterfaceLink -->
<g id="node7" class="node"><title>_CamelSpider_Entity_InterfaceLink</title>
<a xlink:href="db_CamelSpider_Entity_InterfaceLink.html" xlink:title="InterfaceLink" target="_parent">
<polygon fill="none" stroke="black" points="259.814,-717 158.186,-717 158.186,-681 259.814,-681 259.814,-717"/>
<text text-anchor="middle" x="209" y="-695.477" font-family="Courier New" font-size="11.00">InterfaceLink</text>
</a>
</g>
<!-- _CamelSpider_Entity_InterfaceSubscription&#45;&gt;_CamelSpider_Entity_InterfaceLink -->
<g id="edge12" class="edge"><title>_CamelSpider_Entity_InterfaceSubscription-&gt;_CamelSpider_Entity_InterfaceLink</title>
<path fill="none" stroke="black" d="M490.852,-720.241C424.938,-715.256 330.901,-708.144 270.151,-703.549"/>
<polygon fill="none" stroke="black" points="270.189,-700.042 259.954,-702.778 269.661,-707.022 270.189,-700.042"/>
</g>
<!-- _CamelSpider_Entity_Link -->
<g id="node9" class="node"><title>_CamelSpider_Entity_Link</title>
<a xlink:href="db_CamelSpider_Entity_Link.html" xlink:title="Link" target="_parent">
<polygon fill="none" stroke="black" points="595,-690 541,-690 541,-654 595,-654 595,-690"/>
<text text-anchor="middle" x="568" y="-668.477" font-family="Courier New" font-size="11.00">Link</text>
</a>
</g>
<!-- _CamelSpider_Entity_Link&#45;&gt;_CamelSpider_Entity_InterfaceLink -->
<g id="edge32" class="edge"><title>_CamelSpider_Entity_Link-&gt;_CamelSpider_Entity_InterfaceLink</title>
<path fill="none" stroke="black" stroke-dasharray="1,5" d="M540.749,-673.985C484.115,-678.269 349.216,-688.471 270.302,-694.439"/>
<polygon fill="none" stroke="black" points="269.731,-690.972 260.023,-695.217 270.259,-697.953 269.731,-690.972"/>
</g>
<!-- _CamelSpider_Entity_Link&#45;&gt;_Doctrine_Common_Collections_ArrayCollection -->
<g id="edge14" class="edge"><title>_CamelSpider_Entity_Link-&gt;_Doctrine_Common_Collections_ArrayCollection</title>
<path fill="none" stroke="black" d="M540.781,-670.105C524.493,-667.683 504.055,-662.229 490,-650 293.871,-479.356 229.175,-144.958 213.914,-46.1383"/>
<polygon fill="none" stroke="black" points="217.344,-45.4105 212.402,-36.0391 210.421,-46.4471 217.344,-45.4105"/>
</g>
<!-- _CamelSpider_Entity_Pool -->
<g id="node10" class="node"><title>_CamelSpider_Entity_Pool</title>
<a xlink:href="db_CamelSpider_Entity_Pool.html" xlink:title="Pool" target="_parent">
<polygon fill="none" stroke="black" points="1038,-744 984,-744 984,-708 1038,-708 1038,-744"/>
<text text-anchor="middle" x="1011" y="-722.477" font-family="Courier New" font-size="11.00">Pool</text>
</a>
</g>
<!-- _CamelSpider_Entity_Pool&#45;&gt;_CamelSpider_Entity_AbstractSpiderEgg -->
<g id="edge16" class="edge"><title>_CamelSpider_Entity_Pool-&gt;_CamelSpider_Entity_AbstractSpiderEgg</title>
<path fill="none" stroke="black" d="M983.945,-719.486C955.128,-712.282 907.428,-700.357 867.04,-690.26"/>
<polygon fill="none" stroke="black" points="867.764,-686.833 857.214,-687.803 866.066,-693.624 867.764,-686.833"/>
</g>
<!-- _CamelSpider_Entity_Subscription -->
<g id="node11" class="node"><title>_CamelSpider_Entity_Subscription</title>
<a xlink:href="db_CamelSpider_Entity_Subscription.html" xlink:title="Subscription" target="_parent">
<polygon fill="none" stroke="black" points="1058.71,-852 963.287,-852 963.287,-816 1058.71,-816 1058.71,-852"/>
<text text-anchor="middle" x="1011" y="-830.477" font-family="Courier New" font-size="11.00">Subscription</text>
</a>
</g>
<!-- _CamelSpider_Entity_Subscription&#45;&gt;_CamelSpider_Entity_AbstractSubscription -->
<g id="edge18" class="edge"><title>_CamelSpider_Entity_Subscription-&gt;_CamelSpider_Entity_AbstractSubscription</title>
<path fill="none" stroke="black" d="M963.211,-819.489C952.783,-815.792 941.89,-811.56 932,-807 895.804,-790.312 856.835,-766.888 829.569,-749.519"/>
<polygon fill="none" stroke="black" points="831.452,-746.569 821.147,-744.109 827.669,-752.458 831.452,-746.569"/>
</g>
<!-- _CamelSpider_Spider_AbstractCache -->
<g id="node13" class="node"><title>_CamelSpider_Spider_AbstractCache</title>
<a xlink:href="db_CamelSpider_Spider_AbstractCache.html" xlink:title="AbstractCache" target="_parent">
<polygon fill="none" stroke="black" points="1265.81,-447 1164.19,-447 1164.19,-411 1265.81,-411 1265.81,-447"/>
<text text-anchor="middle" x="1215" y="-425.477" font-family="Courier New" font-size="11.00">AbstractCache</text>
</a>
</g>
<!-- _CamelSpider_Spider_AbstractCache&#45;&gt;_CamelSpider_Entity_AbstractSpiderEgg -->
<g id="edge20" class="edge"><title>_CamelSpider_Spider_AbstractCache-&gt;_CamelSpider_Entity_AbstractSpiderEgg</title>
<path fill="none" stroke="black" d="M1010,-582C951.954,-602.895 886.767,-630.669 843.337,-649.809"/>
<polygon fill="none" stroke="black" points="841.869,-646.631 834.139,-653.877 844.701,-653.033 841.869,-646.631"/>
<path fill="none" stroke="black" d="M1166.12,-447.173C1161.79,-449.792 1157.66,-452.727 1154,-456 1112.4,-493.181 1135.04,-531.069 1090,-564 1061.28,-584.998 1045.47,-569.95 1012,-582"/>
</g>
<!-- _CamelSpider_Spider_InterfaceCache -->
<g id="node19" class="node"><title>_CamelSpider_Spider_InterfaceCache</title>
<a xlink:href="db_CamelSpider_Spider_InterfaceCache.html" xlink:title="InterfaceCache" target="_parent">
<polygon fill="none" stroke="black" points="1065.42,-447 956.584,-447 956.584,-411 1065.42,-411 1065.42,-447"/>
<text text-anchor="middle" x="1011" y="-425.477" font-family="Courier New" font-size="11.00">InterfaceCache</text>
</a>
</g>
<!-- _CamelSpider_Spider_AbstractCache&#45;&gt;_CamelSpider_Spider_InterfaceCache -->
<g id="edge34" class="edge"><title>_CamelSpider_Spider_AbstractCache-&gt;_CamelSpider_Spider_InterfaceCache</title>
<path fill="none" stroke="black" stroke-dasharray="1,5" d="M1164.07,-429C1137.33,-429 1104.1,-429 1075.54,-429"/>
<polygon fill="none" stroke="black" points="1075.24,-425.5 1065.24,-429 1075.24,-432.5 1075.24,-425.5"/>
</g>
<!-- _CamelSpider_Spider_AbstractLauncher -->
<g id="node14" class="node"><title>_CamelSpider_Spider_AbstractLauncher</title>
<a xlink:href="db_CamelSpider_Spider_AbstractLauncher.html" xlink:title="AbstractLauncher" target="_parent">
<polygon fill="none" stroke="black" points="1275.62,-609 1154.38,-609 1154.38,-573 1275.62,-573 1275.62,-609"/>
<text text-anchor="middle" x="1215" y="-587.477" font-family="Courier New" font-size="11.00">AbstractLauncher</text>
</a>
</g>
<!-- _CamelSpider_Spider_AbstractLauncher&#45;&gt;_CamelSpider_Entity_AbstractSpiderEgg -->
<g id="edge22" class="edge"><title>_CamelSpider_Spider_AbstractLauncher-&gt;_CamelSpider_Entity_AbstractSpiderEgg</title>
<path fill="none" stroke="black" d="M1154.31,-576.645C1113.12,-569.518 1057.75,-565.533 1012,-582"/>
</g>
<!-- _CamelSpider_Spider_AbstractSpider -->
<g id="node15" class="node"><title>_CamelSpider_Spider_AbstractSpider</title>
<a xlink:href="db_CamelSpider_Spider_AbstractSpider.html" xlink:title="«abstract»&lt;br/&gt;AbstractSpider" target="_parent">
<polygon fill="none" stroke="black" points="1065.5,-393 956.5,-393 956.5,-357 1065.5,-357 1065.5,-393"/>
<text text-anchor="start" x="978" y="-376.5" font-family="Courier New" font-size="11.00">«abstract»</text>
<text text-anchor="start" x="965" y="-365.5" font-family="Courier New" font-size="11.00">AbstractSpider</text>
</a>
</g>
<!-- _CamelSpider_Spider_AbstractSpider&#45;&gt;_CamelSpider_Entity_AbstractSpiderEgg -->
<g id="edge24" class="edge"><title>_CamelSpider_Spider_AbstractSpider-&gt;_CamelSpider_Entity_AbstractSpiderEgg</title>
<path fill="none" stroke="black" d="M956.27,-387.455C947.517,-391.139 939.029,-395.888 932,-402 854.911,-469.037 815.396,-589.594 800.788,-644.006"/>
<polygon fill="none" stroke="black" points="797.326,-643.411 798.194,-653.97 804.1,-645.174 797.326,-643.411"/>
</g>
<!-- _CamelSpider_Spider_DocumentManager -->
<g id="node16" class="node"><title>_CamelSpider_Spider_DocumentManager</title>
<a xlink:href="db_CamelSpider_Spider_DocumentManager.html" xlink:title="DocumentManager" target="_parent">
<polygon fill="none" stroke="black" points="1272.52,-501 1157.48,-501 1157.48,-465 1272.52,-465 1272.52,-501"/>
<text text-anchor="middle" x="1215" y="-479.477" font-family="Courier New" font-size="11.00">DocumentManager</text>
</a>
</g>
<!-- _CamelSpider_Spider_FeedReader -->
<g id="node17" class="node"><title>_CamelSpider_Spider_FeedReader</title>
<a xlink:href="db_CamelSpider_Spider_FeedReader.html" xlink:title="FeedReader" target="_parent">
<polygon fill="none" stroke="black" points="1256.01,-555 1173.99,-555 1173.99,-519 1256.01,-519 1256.01,-555"/>
<text text-anchor="middle" x="1215" y="-533.477" font-family="Courier New" font-size="11.00">FeedReader</text>
</a>
</g>
<!-- _CamelSpider_Spider_FeedReader&#45;&gt;_CamelSpider_Entity_AbstractSpiderEgg -->
<g id="edge26" class="edge"><title>_CamelSpider_Spider_FeedReader-&gt;_CamelSpider_Entity_AbstractSpiderEgg</title>
<path fill="none" stroke="black" d="M1173.61,-545.864C1115.77,-558.577 1015.83,-580.62 1012,-582"/>
</g>
<!-- _CamelSpider_Spider_InterfaceFeedReader -->
<g id="node20" class="node"><title>_CamelSpider_Spider_InterfaceFeedReader</title>
<a xlink:href="db_CamelSpider_Spider_InterfaceFeedReader.html" xlink:title="InterfaceFeedReader" target="_parent">
<polygon fill="none" stroke="black" points="1081.92,-555 940.079,-555 940.079,-519 1081.92,-519 1081.92,-555"/>
<text text-anchor="middle" x="1011" y="-533.477" font-family="Courier New" font-size="11.00">InterfaceFeedReader</text>
</a>
</g>
<!-- _CamelSpider_Spider_FeedReader&#45;&gt;_CamelSpider_Spider_InterfaceFeedReader -->
<g id="edge36" class="edge"><title>_CamelSpider_Spider_FeedReader-&gt;_CamelSpider_Spider_InterfaceFeedReader</title>
<path fill="none" stroke="black" stroke-dasharray="1,5" d="M1173.61,-537C1150.23,-537 1119.97,-537 1091.97,-537"/>
<polygon fill="none" stroke="black" points="1091.78,-533.5 1081.78,-537 1091.78,-540.5 1091.78,-533.5"/>
</g>
<!-- _CamelSpider_Spider_Indexer -->
<g id="node18" class="node"><title>_CamelSpider_Spider_Indexer</title>
<a xlink:href="db_CamelSpider_Spider_Indexer.html" xlink:title="Indexer" target="_parent">
<polygon fill="none" stroke="black" points="1246.21,-393 1183.79,-393 1183.79,-357 1246.21,-357 1246.21,-393"/>
<text text-anchor="middle" x="1215" y="-371.477" font-family="Courier New" font-size="11.00">Indexer</text>
</a>
</g>
<!-- _CamelSpider_Spider_Indexer&#45;&gt;_CamelSpider_Spider_AbstractSpider -->
<g id="edge28" class="edge"><title>_CamelSpider_Spider_Indexer-&gt;_CamelSpider_Spider_AbstractSpider</title>
<path fill="none" stroke="black" d="M1183.76,-375C1155.41,-375 1112.11,-375 1076.09,-375"/>
<polygon fill="none" stroke="black" points="1075.65,-371.5 1065.65,-375 1075.65,-378.5 1075.65,-371.5"/>
</g>
<!-- _CamelSpider_Spider_SpiderAsserts -->
<g id="node21" class="node"><title>_CamelSpider_Spider_SpiderAsserts</title>
<a xlink:href="db_CamelSpider_Spider_SpiderAsserts.html" xlink:title="SpiderAsserts" target="_parent">
<polygon fill="none" stroke="black" points="1265.81,-339 1164.19,-339 1164.19,-303 1265.81,-303 1265.81,-339"/>
<text text-anchor="middle" x="1215" y="-317.477" font-family="Courier New" font-size="11.00">SpiderAsserts</text>
</a>
</g>
<!-- _CamelSpider_Spider_SpiderDom -->
<g id="node22" class="node"><title>_CamelSpider_Spider_SpiderDom</title>
<a xlink:href="db_CamelSpider_Spider_SpiderDom.html" xlink:title="SpiderDom" target="_parent">
<polygon fill="none" stroke="black" points="1252.91,-285 1177.09,-285 1177.09,-249 1252.91,-249 1252.91,-285"/>
<text text-anchor="middle" x="1215" y="-263.477" font-family="Courier New" font-size="11.00">SpiderDom</text>
</a>
</g>
<!-- _CamelSpider_Spider_SpiderTxt -->
<g id="node23" class="node"><title>_CamelSpider_Spider_SpiderTxt</title>
<a xlink:href="db_CamelSpider_Spider_SpiderTxt.html" xlink:title="SpiderTxt" target="_parent">
<polygon fill="none" stroke="black" points="1252.91,-231 1177.09,-231 1177.09,-195 1252.91,-195 1252.91,-231"/>
<text text-anchor="middle" x="1215" y="-209.477" font-family="Courier New" font-size="11.00">SpiderTxt</text>
</a>
</g>
<!-- _CamelSpider_Tools_IdeiasLang -->
<g id="node25" class="node"><title>_CamelSpider_Tools_IdeiasLang</title>
<a xlink:href="db_CamelSpider_Tools_IdeiasLang.html" xlink:title="IdeiasLang" target="_parent">
<polygon fill="none" stroke="black" points="1256.01,-150 1173.99,-150 1173.99,-114 1256.01,-114 1256.01,-150"/>
<text text-anchor="middle" x="1215" y="-128.477" font-family="Courier New" font-size="11.00">IdeiasLang</text>
</a>
</g>
<!-- _CamelSpider_Tools_Urlizer -->
<g id="node26" class="node"><title>_CamelSpider_Tools_Urlizer</title>
<a xlink:href="db_CamelSpider_Tools_Urlizer.html" xlink:title="Urlizer" target="_parent">
<polygon fill="none" stroke="black" points="1246.21,-96 1183.79,-96 1183.79,-60 1246.21,-60 1246.21,-96"/>
<text text-anchor="middle" x="1215" y="-74.4766" font-family="Courier New" font-size="11.00">Urlizer</text>
</a>
</g>
</g>
<script xlink:href="js/SVGPan.js"/></svg>
